<svg xmlns="http://www.w3.org/2000/svg" version="1.1" xmlns:xlink="http://www.w3.org/1999/xlink" xmlns:svgjs="http://svgjs.com/svgjs" width="1440" height="500" preserveAspectRatio="none" viewBox="0 0 1440 500"><g mask="url(&quot;#SvgjsMask1004&quot;)" fill="none"><path d="M-60.59 400.41L-60.59 400.41" stroke="rgba(19, 46, 101, 0.57)" stroke-width="1.5"></path><path d="M-60.59 400.41L-110.87 544.45" stroke="rgba(19, 46, 101, 0.57)" stroke-width="1.5"></path><path d="M-60.59 400.41L98.1 411.14" stroke="rgba(19, 46, 101, 0.57)" stroke-width="1.5"></path><path d="M-110.87 544.45L-110.87 544.45" stroke="rgba(19, 46, 101, 0.57)" stroke-width="1.5"></path><path d="M-110.87 544.45L-91.57 657.85" stroke="rgba(19, 46, 101, 0.57)" stroke-width="1.5"></path><path d="M-110.87 544.45L112.03 645.88" stroke="rgba(19, 46, 101, 0.57)" stroke-width="1.5"></path><path d="M-110.87 544.45L98.1 411.14" stroke="rgba(19, 46, 101, 0.57)" stroke-width="1.5"></path><path d="M-110.87 544.45L206.82 682.17" stroke="rgba(19, 46, 101, 0.57)" stroke-width="1.5"></path><path d="M-110.87 544.45L262.48 550.33" stroke="rgba(19, 46, 101, 0.57)" stroke-width="1.5"></path><path d="M-91.57 657.85L-91.57 657.85" stroke="rgba(19, 46, 101, 0.57)" stroke-width="1.5"></path><path d="M-91.57 657.85L112.03 645.88" stroke="rgba(19, 46, 101, 0.57)" stroke-width="1.5"></path><path d="M-91.57 657.85L-60.59 400.41" stroke="rgba(19, 46, 101, 0.57)" stroke-width="1.5"></path><path d="M98.1 411.14L98.1 411.14" stroke="rgba(19, 46, 101, 0.57)" stroke-width="1.5"></path><path d="M98.1 411.14L227.37 377.75" stroke="rgba(19, 46, 101, 0.57)" stroke-width="1.5"></path><path d="M98.1 411.14L262.48 550.33" stroke="rgba(19, 46, 101, 0.57)" stroke-width="1.5"></path><path d="M112.03 645.88L112.03 645.88" stroke="rgba(19, 46, 101, 0.57)" stroke-width="1.5"></path><path d="M112.03 645.88L206.82 682.17" stroke="rgba(19, 46, 101, 0.57)" stroke-width="1.5"></path><path d="M112.03 645.88L262.48 550.33" stroke="rgba(19, 46, 101, 0.57)" stroke-width="1.5"></path><path d="M227.37 377.75L227.37 377.75" stroke="rgba(19, 46, 101, 0.57)" stroke-width="1.5"></path><path d="M227.37 377.75L400.21 372.32" stroke="rgba(19, 46, 101, 0.57)" stroke-width="1.5"></path><path d="M227.37 377.75L262.48 550.33" stroke="rgba(19, 46, 101, 0.57)" stroke-width="1.5"></path><path d="M227.37 377.75L349.94 552.94" stroke="rgba(19, 46, 101, 0.57)" stroke-width="1.5"></path><path d="M262.48 550.33L262.48 550.33" stroke="rgba(19, 46, 101, 0.57)" stroke-width="1.5"></path><path d="M262.48 550.33L349.94 552.94" stroke="rgba(19, 46, 101, 0.57)" stroke-width="1.5"></path><path d="M262.48 550.33L206.82 682.17" stroke="rgba(19, 46, 101, 0.57)" stroke-width="1.5"></path><path d="M262.48 550.33L380.9 681.85" stroke="rgba(19, 46, 101, 0.57)" stroke-width="1.5"></path><path d="M206.82 682.17L206.82 682.17" stroke="rgba(19, 46, 101, 0.57)" stroke-width="1.5"></path><path d="M400.21 372.32L400.21 372.32" stroke="rgba(19, 46, 101, 0.57)" stroke-width="1.5"></path><path d="M400.21 372.32L543.54 353.93" stroke="rgba(19, 46, 101, 0.57)" stroke-width="1.5"></path><path d="M400.21 372.32L349.94 552.94" stroke="rgba(19, 46, 101, 0.57)" stroke-width="1.5"></path><path d="M400.21 372.32L500.29 562.06" stroke="rgba(19, 46, 101, 0.57)" stroke-width="1.5"></path><path d="M349.94 552.94L349.94 552.94" stroke="rgba(19, 46, 101, 0.57)" stroke-width="1.5"></path><path d="M349.94 552.94L380.9 681.85" stroke="rgba(19, 46, 101, 0.57)" stroke-width="1.5"></path><path d="M349.94 552.94L500.29 562.06" stroke="rgba(19, 46, 101, 0.57)" stroke-width="1.5"></path><path d="M380.9 681.85L380.9 681.85" stroke="rgba(19, 46, 101, 0.57)" stroke-width="1.5"></path><path d="M380.9 681.85L488.23 649.48" stroke="rgba(19, 46, 101, 0.57)" stroke-width="1.5"></path><path d="M543.54 353.93L543.54 353.93" stroke="rgba(19, 46, 101, 0.57)" stroke-width="1.5"></path><path d="M543.54 353.93L708.26 363.37" stroke="rgba(19, 46, 101, 0.57)" stroke-width="1.5"></path><path d="M543.54 353.93L671.44 490.94" stroke="rgba(19, 46, 101, 0.57)" stroke-width="1.5"></path><path d="M543.54 353.93L698.71 233.3" stroke="rgba(19, 46, 101, 0.57)" stroke-width="1.5"></path><path d="M543.54 353.93L500.29 562.06" stroke="rgba(19, 46, 101, 0.57)" stroke-width="1.5"></path><path d="M500.29 562.06L500.29 562.06" stroke="rgba(19, 46, 101, 0.57)" stroke-width="1.5"></path><path d="M500.29 562.06L488.23 649.48" stroke="rgba(19, 46, 101, 0.57)" stroke-width="1.5"></path><path d="M500.29 562.06L380.9 681.85" stroke="rgba(19, 46, 101, 0.57)" stroke-width="1.5"></path><path d="M500.29 562.06L671.44 490.94" stroke="rgba(19, 46, 101, 0.57)" stroke-width="1.5"></path><path d="M500.29 562.06L673.83 639.71" stroke="rgba(19, 46, 101, 0.57)" stroke-width="1.5"></path><path d="M488.23 649.48L488.23 649.48" stroke="rgba(19, 46, 101, 0.57)" stroke-width="1.5"></path><path d="M488.23 649.48L349.94 552.94" stroke="rgba(19, 46, 101, 0.57)" stroke-width="1.5"></path><path d="M488.23 649.48L673.83 639.71" stroke="rgba(19, 46, 101, 0.57)" stroke-width="1.5"></path><path d="M488.23 649.48L671.44 490.94" stroke="rgba(19, 46, 101, 0.57)" stroke-width="1.5"></path><path d="M488.23 649.48L262.48 550.33" stroke="rgba(19, 46, 101, 0.57)" stroke-width="1.5"></path><path d="M698.71 233.3L698.71 233.3" stroke="rgba(19, 46, 101, 0.57)" stroke-width="1.5"></path><path d="M698.71 233.3L823.74 241.1" stroke="rgba(19, 46, 101, 0.57)" stroke-width="1.5"></path><path d="M698.71 233.3L708.26 363.37" stroke="rgba(19, 46, 101, 0.57)" stroke-width="1.5"></path><path d="M698.71 233.3L833.96 349.98" stroke="rgba(19, 46, 101, 0.57)" stroke-width="1.5"></path><path d="M698.71 233.3L671.44 490.94" stroke="rgba(19, 46, 101, 0.57)" stroke-width="1.5"></path><path d="M708.26 363.37L708.26 363.37" stroke="rgba(19, 46, 101, 0.57)" stroke-width="1.5"></path><path d="M708.26 363.37L833.96 349.98" stroke="rgba(19, 46, 101, 0.57)" stroke-width="1.5"></path><path d="M708.26 363.37L671.44 490.94" stroke="rgba(19, 46, 101, 0.57)" stroke-width="1.5"></path><path d="M708.26 363.37L823.74 241.1" stroke="rgba(19, 46, 101, 0.57)" stroke-width="1.5"></path><path d="M708.26 363.37L976.31 404.94" stroke="rgba(19, 46, 101, 0.57)" stroke-width="1.5"></path><path d="M671.44 490.94L671.44 490.94" stroke="rgba(19, 46, 101, 0.57)" stroke-width="1.5"></path><path d="M671.44 490.94L673.83 639.71" stroke="rgba(19, 46, 101, 0.57)" stroke-width="1.5"></path><path d="M673.83 639.71L673.83 639.71" stroke="rgba(19, 46, 101, 0.57)" stroke-width="1.5"></path><path d="M673.83 639.71L823.37 704.64" stroke="rgba(19, 46, 101, 0.57)" stroke-width="1.5"></path><path d="M673.83 639.71L708.26 363.37" stroke="rgba(19, 46, 101, 0.57)" stroke-width="1.5"></path><path d="M673.83 639.71L380.9 681.85" stroke="rgba(19, 46, 101, 0.57)" stroke-width="1.5"></path><path d="M823.74 241.1L823.74 241.1" stroke="rgba(19, 46, 101, 0.57)" stroke-width="1.5"></path><path d="M823.74 241.1L833.96 349.98" stroke="rgba(19, 46, 101, 0.57)" stroke-width="1.5"></path><path d="M823.74 241.1L983.42 222.99" stroke="rgba(19, 46, 101, 0.57)" stroke-width="1.5"></path><path d="M823.74 241.1L976.31 404.94" stroke="rgba(19, 46, 101, 0.57)" stroke-width="1.5"></path><path d="M823.74 241.1L1105.52 248.69" stroke="rgba(19, 46, 101, 0.57)" stroke-width="1.5"></path><path d="M833.96 349.98L833.96 349.98" stroke="rgba(19, 46, 101, 0.57)" stroke-width="1.5"></path><path d="M833.96 349.98L976.31 404.94" stroke="rgba(19, 46, 101, 0.57)" stroke-width="1.5"></path><path d="M833.96 349.98L983.42 222.99" stroke="rgba(19, 46, 101, 0.57)" stroke-width="1.5"></path><path d="M833.96 349.98L671.44 490.94" stroke="rgba(19, 46, 101, 0.57)" stroke-width="1.5"></path><path d="M823.37 704.64L823.37 704.64" stroke="rgba(19, 46, 101, 0.57)" stroke-width="1.5"></path><path d="M823.37 704.64L989.91 679.8" stroke="rgba(19, 46, 101, 0.57)" stroke-width="1.5"></path><path d="M940.6 -73.11L940.6 -73.11" stroke="rgba(19, 46, 101, 0.57)" stroke-width="1.5"></path><path d="M940.6 -73.11L1110.44 -104.4" stroke="rgba(19, 46, 101, 0.57)" stroke-width="1.5"></path><path d="M940.6 -73.11L1131.06 61.24" stroke="rgba(19, 46, 101, 0.57)" stroke-width="1.5"></path><path d="M983.42 222.99L983.42 222.99" stroke="rgba(19, 46, 101, 0.57)" stroke-width="1.5"></path><path d="M983.42 222.99L1105.52 248.69" stroke="rgba(19, 46, 101, 0.57)" stroke-width="1.5"></path><path d="M983.42 222.99L976.31 404.94" stroke="rgba(19, 46, 101, 0.57)" stroke-width="1.5"></path><path d="M983.42 222.99L1131.06 61.24" stroke="rgba(19, 46, 101, 0.57)" stroke-width="1.5"></path><path d="M976.31 404.94L976.31 404.94" stroke="rgba(19, 46, 101, 0.57)" stroke-width="1.5"></path><path d="M976.31 404.94L1008.74 537.79" stroke="rgba(19, 46, 101, 0.57)" stroke-width="1.5"></path><path d="M976.31 404.94L1152.43 402.08" stroke="rgba(19, 46, 101, 0.57)" stroke-width="1.5"></path><path d="M976.31 404.94L1105.52 248.69" stroke="rgba(19, 46, 101, 0.57)" stroke-width="1.5"></path><path d="M1008.74 537.79L1008.74 537.79" stroke="rgba(19, 46, 101, 0.57)" stroke-width="1.5"></path><path d="M1008.74 537.79L989.91 679.8" stroke="rgba(19, 46, 101, 0.57)" stroke-width="1.5"></path><path d="M1008.74 537.79L1152 506.5" stroke="rgba(19, 46, 101, 0.57)" stroke-width="1.5"></path><path d="M1008.74 537.79L1110.13 677.9" stroke="rgba(19, 46, 101, 0.57)" stroke-width="1.5"></path><path d="M989.91 679.8L989.91 679.8" stroke="rgba(19, 46, 101, 0.57)" stroke-width="1.5"></path><path d="M989.91 679.8L1110.13 677.9" stroke="rgba(19, 46, 101, 0.57)" stroke-width="1.5"></path><path d="M989.91 679.8L1152 506.5" stroke="rgba(19, 46, 101, 0.57)" stroke-width="1.5"></path><path d="M989.91 679.8L1259.59 662.07" stroke="rgba(19, 46, 101, 0.57)" stroke-width="1.5"></path><path d="M989.91 679.8L976.31 404.94" stroke="rgba(19, 46, 101, 0.57)" stroke-width="1.5"></path><path d="M1110.44 -104.4L1110.44 -104.4" stroke="rgba(19, 46, 101, 0.57)" stroke-width="1.5"></path><path d="M1110.44 -104.4L1252.81 -58.3" stroke="rgba(19, 46, 101, 0.57)" stroke-width="1.5"></path><path d="M1110.44 -104.4L1131.06 61.24" stroke="rgba(19, 46, 101, 0.57)" stroke-width="1.5"></path><path d="M1110.44 -104.4L1249.54 93.57" stroke="rgba(19, 46, 101, 0.57)" stroke-width="1.5"></path><path d="M1110.44 -104.4L1440.76 -50.03" stroke="rgba(19, 46, 101, 0.57)" stroke-width="1.5"></path><path d="M1131.06 61.24L1131.06 61.24" stroke="rgba(19, 46, 101, 0.57)" stroke-width="1.5"></path><path d="M1131.06 61.24L1249.54 93.57" stroke="rgba(19, 46, 101, 0.57)" stroke-width="1.5"></path><path d="M1131.06 61.24L1252.81 -58.3" stroke="rgba(19, 46, 101, 0.57)" stroke-width="1.5"></path><path d="M1131.06 61.24L1105.52 248.69" stroke="rgba(19, 46, 101, 0.57)" stroke-width="1.5"></path><path d="M1131.06 61.24L1298.31 204.5" stroke="rgba(19, 46, 101, 0.57)" stroke-width="1.5"></path><path d="M1105.52 248.69L1105.52 248.69" stroke="rgba(19, 46, 101, 0.57)" stroke-width="1.5"></path><path d="M1105.52 248.69L1152.43 402.08" stroke="rgba(19, 46, 101, 0.57)" stroke-width="1.5"></path><path d="M1152.43 402.08L1152.43 402.08" stroke="rgba(19, 46, 101, 0.57)" stroke-width="1.5"></path><path d="M1152.43 402.08L1152 506.5" stroke="rgba(19, 46, 101, 0.57)" stroke-width="1.5"></path><path d="M1152.43 402.08L1301.67 372.43" stroke="rgba(19, 46, 101, 0.57)" stroke-width="1.5"></path><path d="M1152.43 402.08L1296.92 490.52" stroke="rgba(19, 46, 101, 0.57)" stroke-width="1.5"></path><path d="M1152.43 402.08L1008.74 537.79" stroke="rgba(19, 46, 101, 0.57)" stroke-width="1.5"></path><path d="M1152 506.5L1152 506.5" stroke="rgba(19, 46, 101, 0.57)" stroke-width="1.5"></path><path d="M1152 506.5L1296.92 490.52" stroke="rgba(19, 46, 101, 0.57)" stroke-width="1.5"></path><path d="M1152 506.5L1110.13 677.9" stroke="rgba(19, 46, 101, 0.57)" stroke-width="1.5"></path><path d="M1152 506.5L1259.59 662.07" stroke="rgba(19, 46, 101, 0.57)" stroke-width="1.5"></path><path d="M1152 506.5L1301.67 372.43" stroke="rgba(19, 46, 101, 0.57)" stroke-width="1.5"></path><path d="M1110.13 677.9L1110.13 677.9" stroke="rgba(19, 46, 101, 0.57)" stroke-width="1.5"></path><path d="M1110.13 677.9L1259.59 662.07" stroke="rgba(19, 46, 101, 0.57)" stroke-width="1.5"></path><path d="M1252.81 -58.3L1252.81 -58.3" stroke="rgba(19, 46, 101, 0.57)" stroke-width="1.5"></path><path d="M1252.81 -58.3L1249.54 93.57" stroke="rgba(19, 46, 101, 0.57)" stroke-width="1.5"></path><path d="M1252.81 -58.3L1440.76 -50.03" stroke="rgba(19, 46, 101, 0.57)" stroke-width="1.5"></path><path d="M1252.81 -58.3L1403.47 99.69" stroke="rgba(19, 46, 101, 0.57)" stroke-width="1.5"></path><path d="M1252.81 -58.3L1298.31 204.5" stroke="rgba(19, 46, 101, 0.57)" stroke-width="1.5"></path><path d="M1249.54 93.57L1249.54 93.57" stroke="rgba(19, 46, 101, 0.57)" stroke-width="1.5"></path><path d="M1249.54 93.57L1298.31 204.5" stroke="rgba(19, 46, 101, 0.57)" stroke-width="1.5"></path><path d="M1249.54 93.57L1403.47 99.69" stroke="rgba(19, 46, 101, 0.57)" stroke-width="1.5"></path><path d="M1298.31 204.5L1298.31 204.5" stroke="rgba(19, 46, 101, 0.57)" stroke-width="1.5"></path><path d="M1298.31 204.5L1429.9 230.65" stroke="rgba(19, 46, 101, 0.57)" stroke-width="1.5"></path><path d="M1298.31 204.5L1403.47 99.69" stroke="rgba(19, 46, 101, 0.57)" stroke-width="1.5"></path><path d="M1298.31 204.5L1301.67 372.43" stroke="rgba(19, 46, 101, 0.57)" stroke-width="1.5"></path><path d="M1298.31 204.5L1105.52 248.69" stroke="rgba(19, 46, 101, 0.57)" stroke-width="1.5"></path><path d="M1301.67 372.43L1301.67 372.43" stroke="rgba(19, 46, 101, 0.57)" stroke-width="1.5"></path><path d="M1301.67 372.43L1296.92 490.52" stroke="rgba(19, 46, 101, 0.57)" stroke-width="1.5"></path><path d="M1301.67 372.43L1444.43 382.19" stroke="rgba(19, 46, 101, 0.57)" stroke-width="1.5"></path><path d="M1296.92 490.52L1296.92 490.52" stroke="rgba(19, 46, 101, 0.57)" stroke-width="1.5"></path><path d="M1296.92 490.52L1422.58 494.4" stroke="rgba(19, 46, 101, 0.57)" stroke-width="1.5"></path><path d="M1259.59 662.07L1259.59 662.07" stroke="rgba(19, 46, 101, 0.57)" stroke-width="1.5"></path><path d="M1259.59 662.07L1387.99 680.19" stroke="rgba(19, 46, 101, 0.57)" stroke-width="1.5"></path><path d="M1259.59 662.07L1296.92 490.52" stroke="rgba(19, 46, 101, 0.57)" stroke-width="1.5"></path><path d="M1440.76 -50.03L1440.76 -50.03" stroke="rgba(19, 46, 101, 0.57)" stroke-width="1.5"></path><path d="M1440.76 -50.03L1577.21 -40.53" stroke="rgba(19, 46, 101, 0.57)" stroke-width="1.5"></path><path d="M1440.76 -50.03L1403.47 99.69" stroke="rgba(19, 46, 101, 0.57)" stroke-width="1.5"></path><path d="M1403.47 99.69L1403.47 99.69" stroke="rgba(19, 46, 101, 0.57)" stroke-width="1.5"></path><path d="M1403.47 99.69L1429.9 230.65" stroke="rgba(19, 46, 101, 0.57)" stroke-width="1.5"></path><path d="M1429.9 230.65L1429.9 230.65" stroke="rgba(19, 46, 101, 0.57)" stroke-width="1.5"></path><path d="M1444.43 382.19L1444.43 382.19" stroke="rgba(19, 46, 101, 0.57)" stroke-width="1.5"></path><path d="M1444.43 382.19L1546.23 387.21" stroke="rgba(19, 46, 101, 0.57)" stroke-width="1.5"></path><path d="M1444.43 382.19L1422.58 494.4" stroke="rgba(19, 46, 101, 0.57)" stroke-width="1.5"></path><path d="M1444.43 382.19L1429.9 230.65" stroke="rgba(19, 46, 101, 0.57)" stroke-width="1.5"></path><path d="M1444.43 382.19L1296.92 490.52" stroke="rgba(19, 46, 101, 0.57)" stroke-width="1.5"></path><path d="M1444.43 382.19L1298.31 204.5" stroke="rgba(19, 46, 101, 0.57)" stroke-width="1.5"></path><path d="M1422.58 494.4L1422.58 494.4" stroke="rgba(19, 46, 101, 0.57)" stroke-width="1.5"></path><path d="M1422.58 494.4L1546.23 387.21" stroke="rgba(19, 46, 101, 0.57)" stroke-width="1.5"></path><path d="M1422.58 494.4L1301.67 372.43" stroke="rgba(19, 46, 101, 0.57)" stroke-width="1.5"></path><path d="M1387.99 680.19L1387.99 680.19" stroke="rgba(19, 46, 101, 0.57)" stroke-width="1.5"></path><path d="M1387.99 680.19L1539.8 684.7" stroke="rgba(19, 46, 101, 0.57)" stroke-width="1.5"></path><path d="M1387.99 680.19L1422.58 494.4" stroke="rgba(19, 46, 101, 0.57)" stroke-width="1.5"></path><path d="M1387.99 680.19L1296.92 490.52" stroke="rgba(19, 46, 101, 0.57)" stroke-width="1.5"></path><path d="M1387.99 680.19L1110.13 677.9" stroke="rgba(19, 46, 101, 0.57)" stroke-width="1.5"></path><path d="M1387.99 680.19L1152 506.5" stroke="rgba(19, 46, 101, 0.57)" stroke-width="1.5"></path><path d="M1577.21 -40.53L1577.21 -40.53" stroke="rgba(19, 46, 101, 0.57)" stroke-width="1.5"></path><path d="M1577.21 -40.53L1582.1 86.79" stroke="rgba(19, 46, 101, 0.57)" stroke-width="1.5"></path><path d="M1577.21 -40.53L1403.47 99.69" stroke="rgba(19, 46, 101, 0.57)" stroke-width="1.5"></path><path d="M1577.21 -40.53L1609.86 188.87" stroke="rgba(19, 46, 101, 0.57)" stroke-width="1.5"></path><path d="M1577.21 -40.53L1429.9 230.65" stroke="rgba(19, 46, 101, 0.57)" stroke-width="1.5"></path><path d="M1582.1 86.79L1582.1 86.79" stroke="rgba(19, 46, 101, 0.57)" stroke-width="1.5"></path><path d="M1582.1 86.79L1609.86 188.87" stroke="rgba(19, 46, 101, 0.57)" stroke-width="1.5"></path><path d="M1582.1 86.79L1403.47 99.69" stroke="rgba(19, 46, 101, 0.57)" stroke-width="1.5"></path><path d="M1582.1 86.79L1440.76 -50.03" stroke="rgba(19, 46, 101, 0.57)" stroke-width="1.5"></path><path d="M1582.1 86.79L1429.9 230.65" stroke="rgba(19, 46, 101, 0.57)" stroke-width="1.5"></path><path d="M1582.1 86.79L1546.23 387.21" stroke="rgba(19, 46, 101, 0.57)" stroke-width="1.5"></path><path d="M1609.86 188.87L1609.86 188.87" stroke="rgba(19, 46, 101, 0.57)" stroke-width="1.5"></path><path d="M1609.86 188.87L1429.9 230.65" stroke="rgba(19, 46, 101, 0.57)" stroke-width="1.5"></path><path d="M1546.23 387.21L1546.23 387.21" stroke="rgba(19, 46, 101, 0.57)" stroke-width="1.5"></path><path d="M1539.8 684.7L1539.8 684.7" stroke="rgba(19, 46, 101, 0.57)" stroke-width="1.5"></path><path d="M1539.8 684.7L1422.58 494.4" stroke="rgba(19, 46, 101, 0.57)" stroke-width="1.5"></path><path d="M1539.8 684.7L1259.59 662.07" stroke="rgba(19, 46, 101, 0.57)" stroke-width="1.5"></path><circle r="5" cx="-60.59" cy="400.41" fill="rgba(19, 46, 101, 0.57)"></circle><circle r="5" cx="-110.87" cy="544.45" fill="rgba(19, 46, 101, 0.57)"></circle><circle r="5" cx="-91.57" cy="657.85" fill="rgba(19, 46, 101, 0.57)"></circle><circle r="5" cx="98.1" cy="411.14" fill="rgba(19, 46, 101, 0.57)"></circle><circle r="5" cx="112.03" cy="645.88" fill="rgba(19, 46, 101, 0.57)"></circle><circle r="5" cx="227.37" cy="377.75" fill="rgba(19, 46, 101, 0.57)"></circle><circle r="5" cx="262.48" cy="550.33" fill="rgba(19, 46, 101, 0.57)"></circle><circle r="5" cx="206.82" cy="682.17" fill="rgba(19, 46, 101, 0.57)"></circle><circle r="5" cx="400.21" cy="372.32" fill="rgba(19, 46, 101, 0.57)"></circle><circle r="5" cx="349.94" cy="552.94" fill="rgba(19, 46, 101, 0.57)"></circle><circle r="5" cx="380.9" cy="681.85" fill="rgba(19, 46, 101, 0.57)"></circle><circle r="5" cx="543.54" cy="353.93" fill="rgba(19, 46, 101, 0.57)"></circle><circle r="5" cx="500.29" cy="562.06" fill="rgba(19, 46, 101, 0.57)"></circle><circle r="5" cx="488.23" cy="649.48" fill="rgba(19, 46, 101, 0.57)"></circle><circle r="5" cx="698.71" cy="233.3" fill="rgba(19, 46, 101, 0.57)"></circle><circle r="5" cx="708.26" cy="363.37" fill="rgba(19, 46, 101, 0.57)"></circle><circle r="5" cx="671.44" cy="490.94" fill="rgba(19, 46, 101, 0.57)"></circle><circle r="5" cx="673.83" cy="639.71" fill="rgba(19, 46, 101, 0.57)"></circle><circle r="5" cx="823.74" cy="241.1" fill="rgba(19, 46, 101, 0.57)"></circle><circle r="5" cx="833.96" cy="349.98" fill="rgba(19, 46, 101, 0.57)"></circle><circle r="5" cx="823.37" cy="704.64" fill="rgba(19, 46, 101, 0.57)"></circle><circle r="5" cx="940.6" cy="-73.11" fill="rgba(19, 46, 101, 0.57)"></circle><circle r="5" cx="983.42" cy="222.99" fill="rgba(19, 46, 101, 0.57)"></circle><circle r="5" cx="976.31" cy="404.94" fill="rgba(19, 46, 101, 0.57)"></circle><circle r="5" cx="1008.74" cy="537.79" fill="rgba(19, 46, 101, 0.57)"></circle><circle r="5" cx="989.91" cy="679.8" fill="rgba(19, 46, 101, 0.57)"></circle><circle r="5" cx="1110.44" cy="-104.4" fill="rgba(19, 46, 101, 0.57)"></circle><circle r="5" cx="1131.06" cy="61.24" fill="rgba(19, 46, 101, 0.57)"></circle><circle r="5" cx="1105.52" cy="248.69" fill="rgba(19, 46, 101, 0.57)"></circle><circle r="5" cx="1152.43" cy="402.08" fill="rgba(19, 46, 101, 0.57)"></circle><circle r="5" cx="1152" cy="506.5" fill="rgba(19, 46, 101, 0.57)"></circle><circle r="5" cx="1110.13" cy="677.9" fill="rgba(19, 46, 101, 0.57)"></circle><circle r="5" cx="1252.81" cy="-58.3" fill="rgba(19, 46, 101, 0.57)"></circle><circle r="5" cx="1249.54" cy="93.57" fill="rgba(19, 46, 101, 0.57)"></circle><circle r="5" cx="1298.31" cy="204.5" fill="rgba(19, 46, 101, 0.57)"></circle><circle r="5" cx="1301.67" cy="372.43" fill="rgba(19, 46, 101, 0.57)"></circle><circle r="5" cx="1296.92" cy="490.52" fill="rgba(19, 46, 101, 0.57)"></circle><circle r="5" cx="1259.59" cy="662.07" fill="rgba(19, 46, 101, 0.57)"></circle><circle r="5" cx="1440.76" cy="-50.03" fill="rgba(19, 46, 101, 0.57)"></circle><circle r="5" cx="1403.47" cy="99.69" fill="rgba(19, 46, 101, 0.57)"></circle><circle r="5" cx="1429.9" cy="230.65" fill="rgba(19, 46, 101, 0.57)"></circle><circle r="5" cx="1444.43" cy="382.19" fill="rgba(19, 46, 101, 0.57)"></circle><circle r="5" cx="1422.58" cy="494.4" fill="rgba(19, 46, 101, 0.57)"></circle><circle r="5" cx="1387.99" cy="680.19" fill="rgba(19, 46, 101, 0.57)"></circle><circle r="5" cx="1577.21" cy="-40.53" fill="rgba(19, 46, 101, 0.57)"></circle><circle r="5" cx="1582.1" cy="86.79" fill="rgba(19, 46, 101, 0.57)"></circle><circle r="5" cx="1609.86" cy="188.87" fill="rgba(19, 46, 101, 0.57)"></circle><circle r="5" cx="1546.23" cy="387.21" fill="rgba(19, 46, 101, 0.57)"></circle><circle r="5" cx="1539.8" cy="684.7" fill="rgba(19, 46, 101, 0.57)"></circle><path d="M-81.85 497.51L-81.85 497.51" stroke="hsla(228.5, 77.2%, 51.5%, 0.43)" stroke-width="1.5"></path><path d="M-81.85 497.51L-42.43 646.39" stroke="hsla(228.5, 77.2%, 51.5%, 0.43)" stroke-width="1.5"></path><path d="M-81.85 497.51L96.32 544.24" stroke="hsla(228.5, 77.2%, 51.5%, 0.43)" stroke-width="1.5"></path><path d="M-81.85 497.51L57.6 660.28" stroke="hsla(228.5, 77.2%, 51.5%, 0.43)" stroke-width="1.5"></path><path d="M-81.85 497.51L194.79 548.05" stroke="hsla(228.5, 77.2%, 51.5%, 0.43)" stroke-width="1.5"></path><path d="M-81.85 497.51L196.71 642.43" stroke="hsla(228.5, 77.2%, 51.5%, 0.43)" stroke-width="1.5"></path><path d="M708.61 535.31L708.61 535.31" stroke="hsla(228.5, 77.2%, 51.5%, 0.43)" stroke-width="1.5"></path><path d="M708.61 535.31L788.01 529.19" stroke="hsla(228.5, 77.2%, 51.5%, 0.43)" stroke-width="1.5"></path><path d="M708.61 535.31L707.78 684.77" stroke="hsla(228.5, 77.2%, 51.5%, 0.43)" stroke-width="1.5"></path><path d="M708.61 535.31L540.34 556.03" stroke="hsla(228.5, 77.2%, 51.5%, 0.43)" stroke-width="1.5"></path><path d="M861.99 403.89L861.99 403.89" stroke="hsla(228.5, 77.2%, 51.5%, 0.43)" stroke-width="1.5"></path><path d="M861.99 403.89L995.85 375.77" stroke="hsla(228.5, 77.2%, 51.5%, 0.43)" stroke-width="1.5"></path><path d="M861.99 403.89L788.01 529.19" stroke="hsla(228.5, 77.2%, 51.5%, 0.43)" stroke-width="1.5"></path><path d="M861.99 403.89L691.5 360.34" stroke="hsla(228.5, 77.2%, 51.5%, 0.43)" stroke-width="1.5"></path><path d="M861.99 403.89L1003.51 538.11" stroke="hsla(228.5, 77.2%, 51.5%, 0.43)" stroke-width="1.5"></path><path d="M788.01 529.19L788.01 529.19" stroke="hsla(228.5, 77.2%, 51.5%, 0.43)" stroke-width="1.5"></path><path d="M788.01 529.19L795.05 698.15" stroke="hsla(228.5, 77.2%, 51.5%, 0.43)" stroke-width="1.5"></path><path d="M788.01 529.19L707.78 684.77" stroke="hsla(228.5, 77.2%, 51.5%, 0.43)" stroke-width="1.5"></path><path d="M795.05 698.15L795.05 698.15" stroke="hsla(228.5, 77.2%, 51.5%, 0.43)" stroke-width="1.5"></path><path d="M795.05 698.15L707.78 684.77" stroke="hsla(228.5, 77.2%, 51.5%, 0.43)" stroke-width="1.5"></path><path d="M795.05 698.15L944.67 648.94" stroke="hsla(228.5, 77.2%, 51.5%, 0.43)" stroke-width="1.5"></path><path d="M987.73 251.93L987.73 251.93" stroke="hsla(228.5, 77.2%, 51.5%, 0.43)" stroke-width="1.5"></path><path d="M987.73 251.93L995.85 375.77" stroke="hsla(228.5, 77.2%, 51.5%, 0.43)" stroke-width="1.5"></path><path d="M987.73 251.93L1110.99 338.82" stroke="hsla(228.5, 77.2%, 51.5%, 0.43)" stroke-width="1.5"></path><path d="M987.73 251.93L1151.36 212.93" stroke="hsla(228.5, 77.2%, 51.5%, 0.43)" stroke-width="1.5"></path><path d="M987.73 251.93L861.99 403.89" stroke="hsla(228.5, 77.2%, 51.5%, 0.43)" stroke-width="1.5"></path><path d="M995.85 375.77L995.85 375.77" stroke="hsla(228.5, 77.2%, 51.5%, 0.43)" stroke-width="1.5"></path><path d="M995.85 375.77L1110.99 338.82" stroke="hsla(228.5, 77.2%, 51.5%, 0.43)" stroke-width="1.5"></path><path d="M995.85 375.77L1003.51 538.11" stroke="hsla(228.5, 77.2%, 51.5%, 0.43)" stroke-width="1.5"></path><path d="M995.85 375.77L1132.26 548.57" stroke="hsla(228.5, 77.2%, 51.5%, 0.43)" stroke-width="1.5"></path><path d="M1245.52 381.32L1245.52 381.32" stroke="hsla(228.5, 77.2%, 51.5%, 0.43)" stroke-width="1.5"></path><path d="M1245.52 381.32L1297.8 496.96" stroke="hsla(228.5, 77.2%, 51.5%, 0.43)" stroke-width="1.5"></path><path d="M1245.52 381.32L1110.99 338.82" stroke="hsla(228.5, 77.2%, 51.5%, 0.43)" stroke-width="1.5"></path><path d="M1245.52 381.32L1151.36 212.93" stroke="hsla(228.5, 77.2%, 51.5%, 0.43)" stroke-width="1.5"></path><path d="M1245.52 381.32L1441.33 364.06" stroke="hsla(228.5, 77.2%, 51.5%, 0.43)" stroke-width="1.5"></path><path d="M1245.52 381.32L1132.26 548.57" stroke="hsla(228.5, 77.2%, 51.5%, 0.43)" stroke-width="1.5"></path><path d="M1245.52 381.32L1400.23 215.8" stroke="hsla(228.5, 77.2%, 51.5%, 0.43)" stroke-width="1.5"></path><path d="M1297.8 496.96L1297.8 496.96" stroke="hsla(228.5, 77.2%, 51.5%, 0.43)" stroke-width="1.5"></path><path d="M1297.8 496.96L1443.6 513.94" stroke="hsla(228.5, 77.2%, 51.5%, 0.43)" stroke-width="1.5"></path><path d="M1297.8 496.96L1132.26 548.57" stroke="hsla(228.5, 77.2%, 51.5%, 0.43)" stroke-width="1.5"></path><path d="M1297.8 496.96L1396.8 643.39" stroke="hsla(228.5, 77.2%, 51.5%, 0.43)" stroke-width="1.5"></path><path d="M1443.6 513.94L1443.6 513.94" stroke="hsla(228.5, 77.2%, 51.5%, 0.43)" stroke-width="1.5"></path><path d="M1443.6 513.94L1562.68 505.03" stroke="hsla(228.5, 77.2%, 51.5%, 0.43)" stroke-width="1.5"></path><path d="M1443.6 513.94L1396.8 643.39" stroke="hsla(228.5, 77.2%, 51.5%, 0.43)" stroke-width="1.5"></path><path d="M1443.6 513.94L1441.33 364.06" stroke="hsla(228.5, 77.2%, 51.5%, 0.43)" stroke-width="1.5"></path><path d="M1443.6 513.94L1547.3 646.13" stroke="hsla(228.5, 77.2%, 51.5%, 0.43)" stroke-width="1.5"></path><path d="M1562.68 505.03L1562.68 505.03" stroke="hsla(228.5, 77.2%, 51.5%, 0.43)" stroke-width="1.5"></path><path d="M1562.68 505.03L1566.88 363.53" stroke="hsla(228.5, 77.2%, 51.5%, 0.43)" stroke-width="1.5"></path><path d="M1562.68 505.03L1547.3 646.13" stroke="hsla(228.5, 77.2%, 51.5%, 0.43)" stroke-width="1.5"></path><path d="M1562.68 505.03L1441.33 364.06" stroke="hsla(228.5, 77.2%, 51.5%, 0.43)" stroke-width="1.5"></path><path d="M1562.68 505.03L1396.8 643.39" stroke="hsla(228.5, 77.2%, 51.5%, 0.43)" stroke-width="1.5"></path><path d="M1547.3 646.13L1547.3 646.13" stroke="hsla(228.5, 77.2%, 51.5%, 0.43)" stroke-width="1.5"></path><path d="M1547.3 646.13L1396.8 643.39" stroke="hsla(228.5, 77.2%, 51.5%, 0.43)" stroke-width="1.5"></path><path d="M1547.3 646.13L1566.88 363.53" stroke="hsla(228.5, 77.2%, 51.5%, 0.43)" stroke-width="1.5"></path><path d="M1547.3 646.13L1263.94 687.21" stroke="hsla(228.5, 77.2%, 51.5%, 0.43)" stroke-width="1.5"></path><path d="M1547.3 646.13L1297.8 496.96" stroke="hsla(228.5, 77.2%, 51.5%, 0.43)" stroke-width="1.5"></path><path d="M-42.43 646.39L-42.43 646.39" stroke="hsla(228.5, 77.2%, 51.5%, 0.43)" stroke-width="1.5"></path><path d="M-42.43 646.39L57.6 660.28" stroke="hsla(228.5, 77.2%, 51.5%, 0.43)" stroke-width="1.5"></path><path d="M96.32 544.24L96.32 544.24" stroke="hsla(228.5, 77.2%, 51.5%, 0.43)" stroke-width="1.5"></path><path d="M96.32 544.24L194.79 548.05" stroke="hsla(228.5, 77.2%, 51.5%, 0.43)" stroke-width="1.5"></path><path d="M96.32 544.24L57.6 660.28" stroke="hsla(228.5, 77.2%, 51.5%, 0.43)" stroke-width="1.5"></path><path d="M96.32 544.24L196.71 642.43" stroke="hsla(228.5, 77.2%, 51.5%, 0.43)" stroke-width="1.5"></path><path d="M96.32 544.24L-42.43 646.39" stroke="hsla(228.5, 77.2%, 51.5%, 0.43)" stroke-width="1.5"></path><path d="M57.6 660.28L57.6 660.28" stroke="hsla(228.5, 77.2%, 51.5%, 0.43)" stroke-width="1.5"></path><path d="M57.6 660.28L196.71 642.43" stroke="hsla(228.5, 77.2%, 51.5%, 0.43)" stroke-width="1.5"></path><path d="M194.79 548.05L194.79 548.05" stroke="hsla(228.5, 77.2%, 51.5%, 0.43)" stroke-width="1.5"></path><path d="M194.79 548.05L196.71 642.43" stroke="hsla(228.5, 77.2%, 51.5%, 0.43)" stroke-width="1.5"></path><path d="M194.79 548.05L365.29 516.86" stroke="hsla(228.5, 77.2%, 51.5%, 0.43)" stroke-width="1.5"></path><path d="M194.79 548.05L57.6 660.28" stroke="hsla(228.5, 77.2%, 51.5%, 0.43)" stroke-width="1.5"></path><path d="M194.79 548.05L345.88 644.35" stroke="hsla(228.5, 77.2%, 51.5%, 0.43)" stroke-width="1.5"></path><path d="M196.71 642.43L196.71 642.43" stroke="hsla(228.5, 77.2%, 51.5%, 0.43)" stroke-width="1.5"></path><path d="M380.45 396.8L380.45 396.8" stroke="hsla(228.5, 77.2%, 51.5%, 0.43)" stroke-width="1.5"></path><path d="M380.45 396.8L365.29 516.86" stroke="hsla(228.5, 77.2%, 51.5%, 0.43)" stroke-width="1.5"></path><path d="M380.45 396.8L540.34 556.03" stroke="hsla(228.5, 77.2%, 51.5%, 0.43)" stroke-width="1.5"></path><path d="M365.29 516.86L365.29 516.86" stroke="hsla(228.5, 77.2%, 51.5%, 0.43)" stroke-width="1.5"></path><path d="M365.29 516.86L345.88 644.35" stroke="hsla(228.5, 77.2%, 51.5%, 0.43)" stroke-width="1.5"></path><path d="M345.88 644.35L345.88 644.35" stroke="hsla(228.5, 77.2%, 51.5%, 0.43)" stroke-width="1.5"></path><path d="M345.88 644.35L196.71 642.43" stroke="hsla(228.5, 77.2%, 51.5%, 0.43)" stroke-width="1.5"></path><path d="M345.88 644.35L540.34 556.03" stroke="hsla(228.5, 77.2%, 51.5%, 0.43)" stroke-width="1.5"></path><path d="M345.88 644.35L557.12 697.54" stroke="hsla(228.5, 77.2%, 51.5%, 0.43)" stroke-width="1.5"></path><path d="M540.34 556.03L540.34 556.03" stroke="hsla(228.5, 77.2%, 51.5%, 0.43)" stroke-width="1.5"></path><path d="M540.34 556.03L557.12 697.54" stroke="hsla(228.5, 77.2%, 51.5%, 0.43)" stroke-width="1.5"></path><path d="M540.34 556.03L365.29 516.86" stroke="hsla(228.5, 77.2%, 51.5%, 0.43)" stroke-width="1.5"></path><path d="M540.34 556.03L707.78 684.77" stroke="hsla(228.5, 77.2%, 51.5%, 0.43)" stroke-width="1.5"></path><path d="M557.12 697.54L557.12 697.54" stroke="hsla(228.5, 77.2%, 51.5%, 0.43)" stroke-width="1.5"></path><path d="M557.12 697.54L707.78 684.77" stroke="hsla(228.5, 77.2%, 51.5%, 0.43)" stroke-width="1.5"></path><path d="M691.5 360.34L691.5 360.34" stroke="hsla(228.5, 77.2%, 51.5%, 0.43)" stroke-width="1.5"></path><path d="M691.5 360.34L708.61 535.31" stroke="hsla(228.5, 77.2%, 51.5%, 0.43)" stroke-width="1.5"></path><path d="M691.5 360.34L788.01 529.19" stroke="hsla(228.5, 77.2%, 51.5%, 0.43)" stroke-width="1.5"></path><path d="M691.5 360.34L540.34 556.03" stroke="hsla(228.5, 77.2%, 51.5%, 0.43)" stroke-width="1.5"></path><path d="M691.5 360.34L995.85 375.77" stroke="hsla(228.5, 77.2%, 51.5%, 0.43)" stroke-width="1.5"></path><path d="M691.5 360.34L380.45 396.8" stroke="hsla(228.5, 77.2%, 51.5%, 0.43)" stroke-width="1.5"></path><path d="M707.78 684.77L707.78 684.77" stroke="hsla(228.5, 77.2%, 51.5%, 0.43)" stroke-width="1.5"></path><path d="M1003.51 538.11L1003.51 538.11" stroke="hsla(228.5, 77.2%, 51.5%, 0.43)" stroke-width="1.5"></path><path d="M1003.51 538.11L944.67 648.94" stroke="hsla(228.5, 77.2%, 51.5%, 0.43)" stroke-width="1.5"></path><path d="M1003.51 538.11L1132.26 548.57" stroke="hsla(228.5, 77.2%, 51.5%, 0.43)" stroke-width="1.5"></path><path d="M944.67 648.94L944.67 648.94" stroke="hsla(228.5, 77.2%, 51.5%, 0.43)" stroke-width="1.5"></path><path d="M944.67 648.94L1127.76 689.92" stroke="hsla(228.5, 77.2%, 51.5%, 0.43)" stroke-width="1.5"></path><path d="M944.67 648.94L788.01 529.19" stroke="hsla(228.5, 77.2%, 51.5%, 0.43)" stroke-width="1.5"></path><path d="M944.67 648.94L1132.26 548.57" stroke="hsla(228.5, 77.2%, 51.5%, 0.43)" stroke-width="1.5"></path><path d="M1154.67 52.6L1154.67 52.6" stroke="hsla(228.5, 77.2%, 51.5%, 0.43)" stroke-width="1.5"></path><path d="M1154.67 52.6L1237.87 53.52" stroke="hsla(228.5, 77.2%, 51.5%, 0.43)" stroke-width="1.5"></path><path d="M1154.67 52.6L1151.36 212.93" stroke="hsla(228.5, 77.2%, 51.5%, 0.43)" stroke-width="1.5"></path><path d="M1154.67 52.6L1301.48 -49.65" stroke="hsla(228.5, 77.2%, 51.5%, 0.43)" stroke-width="1.5"></path><path d="M1154.67 52.6L987.73 251.93" stroke="hsla(228.5, 77.2%, 51.5%, 0.43)" stroke-width="1.5"></path><path d="M1154.67 52.6L1416.57 58.32" stroke="hsla(228.5, 77.2%, 51.5%, 0.43)" stroke-width="1.5"></path><path d="M1151.36 212.93L1151.36 212.93" stroke="hsla(228.5, 77.2%, 51.5%, 0.43)" stroke-width="1.5"></path><path d="M1151.36 212.93L1110.99 338.82" stroke="hsla(228.5, 77.2%, 51.5%, 0.43)" stroke-width="1.5"></path><path d="M1110.99 338.82L1110.99 338.82" stroke="hsla(228.5, 77.2%, 51.5%, 0.43)" stroke-width="1.5"></path><path d="M1132.26 548.57L1132.26 548.57" stroke="hsla(228.5, 77.2%, 51.5%, 0.43)" stroke-width="1.5"></path><path d="M1132.26 548.57L1127.76 689.92" stroke="hsla(228.5, 77.2%, 51.5%, 0.43)" stroke-width="1.5"></path><path d="M1132.26 548.57L1263.94 687.21" stroke="hsla(228.5, 77.2%, 51.5%, 0.43)" stroke-width="1.5"></path><path d="M1132.26 548.57L1110.99 338.82" stroke="hsla(228.5, 77.2%, 51.5%, 0.43)" stroke-width="1.5"></path><path d="M1127.76 689.92L1127.76 689.92" stroke="hsla(228.5, 77.2%, 51.5%, 0.43)" stroke-width="1.5"></path><path d="M1127.76 689.92L1263.94 687.21" stroke="hsla(228.5, 77.2%, 51.5%, 0.43)" stroke-width="1.5"></path><path d="M1127.76 689.92L1003.51 538.11" stroke="hsla(228.5, 77.2%, 51.5%, 0.43)" stroke-width="1.5"></path><path d="M1127.76 689.92L1297.8 496.96" stroke="hsla(228.5, 77.2%, 51.5%, 0.43)" stroke-width="1.5"></path><path d="M1301.48 -49.65L1301.48 -49.65" stroke="hsla(228.5, 77.2%, 51.5%, 0.43)" stroke-width="1.5"></path><path d="M1301.48 -49.65L1420.34 -43.24" stroke="hsla(228.5, 77.2%, 51.5%, 0.43)" stroke-width="1.5"></path><path d="M1301.48 -49.65L1237.87 53.52" stroke="hsla(228.5, 77.2%, 51.5%, 0.43)" stroke-width="1.5"></path><path d="M1301.48 -49.65L1416.57 58.32" stroke="hsla(228.5, 77.2%, 51.5%, 0.43)" stroke-width="1.5"></path><path d="M1301.48 -49.65L1541.26 -56.72" stroke="hsla(228.5, 77.2%, 51.5%, 0.43)" stroke-width="1.5"></path><path d="M1237.87 53.52L1237.87 53.52" stroke="hsla(228.5, 77.2%, 51.5%, 0.43)" stroke-width="1.5"></path><path d="M1237.87 53.52L1416.57 58.32" stroke="hsla(228.5, 77.2%, 51.5%, 0.43)" stroke-width="1.5"></path><path d="M1237.87 53.52L1151.36 212.93" stroke="hsla(228.5, 77.2%, 51.5%, 0.43)" stroke-width="1.5"></path><path d="M1263.94 687.21L1263.94 687.21" stroke="hsla(228.5, 77.2%, 51.5%, 0.43)" stroke-width="1.5"></path><path d="M1263.94 687.21L1396.8 643.39" stroke="hsla(228.5, 77.2%, 51.5%, 0.43)" stroke-width="1.5"></path><path d="M1420.34 -43.24L1420.34 -43.24" stroke="hsla(228.5, 77.2%, 51.5%, 0.43)" stroke-width="1.5"></path><path d="M1420.34 -43.24L1416.57 58.32" stroke="hsla(228.5, 77.2%, 51.5%, 0.43)" stroke-width="1.5"></path><path d="M1420.34 -43.24L1541.26 -56.72" stroke="hsla(228.5, 77.2%, 51.5%, 0.43)" stroke-width="1.5"></path><path d="M1420.34 -43.24L1573.19 62.14" stroke="hsla(228.5, 77.2%, 51.5%, 0.43)" stroke-width="1.5"></path><path d="M1420.34 -43.24L1237.87 53.52" stroke="hsla(228.5, 77.2%, 51.5%, 0.43)" stroke-width="1.5"></path><path d="M1416.57 58.32L1416.57 58.32" stroke="hsla(228.5, 77.2%, 51.5%, 0.43)" stroke-width="1.5"></path><path d="M1416.57 58.32L1573.19 62.14" stroke="hsla(228.5, 77.2%, 51.5%, 0.43)" stroke-width="1.5"></path><path d="M1416.57 58.32L1400.23 215.8" stroke="hsla(228.5, 77.2%, 51.5%, 0.43)" stroke-width="1.5"></path><path d="M1416.57 58.32L1541.26 -56.72" stroke="hsla(228.5, 77.2%, 51.5%, 0.43)" stroke-width="1.5"></path><path d="M1400.23 215.8L1400.23 215.8" stroke="hsla(228.5, 77.2%, 51.5%, 0.43)" stroke-width="1.5"></path><path d="M1400.23 215.8L1540.64 247.34" stroke="hsla(228.5, 77.2%, 51.5%, 0.43)" stroke-width="1.5"></path><path d="M1400.23 215.8L1441.33 364.06" stroke="hsla(228.5, 77.2%, 51.5%, 0.43)" stroke-width="1.5"></path><path d="M1400.23 215.8L1566.88 363.53" stroke="hsla(228.5, 77.2%, 51.5%, 0.43)" stroke-width="1.5"></path><path d="M1441.33 364.06L1441.33 364.06" stroke="hsla(228.5, 77.2%, 51.5%, 0.43)" stroke-width="1.5"></path><path d="M1441.33 364.06L1566.88 363.53" stroke="hsla(228.5, 77.2%, 51.5%, 0.43)" stroke-width="1.5"></path><path d="M1441.33 364.06L1540.64 247.34" stroke="hsla(228.5, 77.2%, 51.5%, 0.43)" stroke-width="1.5"></path><path d="M1396.8 643.39L1396.8 643.39" stroke="hsla(228.5, 77.2%, 51.5%, 0.43)" stroke-width="1.5"></path><path d="M1541.26 -56.72L1541.26 -56.72" stroke="hsla(228.5, 77.2%, 51.5%, 0.43)" stroke-width="1.5"></path><path d="M1541.26 -56.72L1573.19 62.14" stroke="hsla(228.5, 77.2%, 51.5%, 0.43)" stroke-width="1.5"></path><path d="M1541.26 -56.72L1540.64 247.34" stroke="hsla(228.5, 77.2%, 51.5%, 0.43)" stroke-width="1.5"></path><path d="M1573.19 62.14L1573.19 62.14" stroke="hsla(228.5, 77.2%, 51.5%, 0.43)" stroke-width="1.5"></path><path d="M1573.19 62.14L1540.64 247.34" stroke="hsla(228.5, 77.2%, 51.5%, 0.43)" stroke-width="1.5"></path><path d="M1540.64 247.34L1540.64 247.34" stroke="hsla(228.5, 77.2%, 51.5%, 0.43)" stroke-width="1.5"></path><path d="M1540.64 247.34L1566.88 363.53" stroke="hsla(228.5, 77.2%, 51.5%, 0.43)" stroke-width="1.5"></path><path d="M1540.64 247.34L1416.57 58.32" stroke="hsla(228.5, 77.2%, 51.5%, 0.43)" stroke-width="1.5"></path><path d="M1566.88 363.53L1566.88 363.53" stroke="hsla(228.5, 77.2%, 51.5%, 0.43)" stroke-width="1.5"></path><circle r="25" cx="-81.85" cy="497.51" fill="url(#SvgjsRadialGradient1005)"></circle><circle r="25" cx="708.61" cy="535.31" fill="url(#SvgjsRadialGradient1005)"></circle><circle r="25" cx="861.99" cy="403.89" fill="url(#SvgjsRadialGradient1005)"></circle><circle r="25" cx="788.01" cy="529.19" fill="url(#SvgjsRadialGradient1005)"></circle><circle r="25" cx="795.05" cy="698.15" fill="url(#SvgjsRadialGradient1005)"></circle><circle r="25" cx="987.73" cy="251.93" fill="url(#SvgjsRadialGradient1005)"></circle><circle r="25" cx="995.85" cy="375.77" fill="url(#SvgjsRadialGradient1005)"></circle><circle r="25" cx="1245.52" cy="381.32" fill="url(#SvgjsRadialGradient1005)"></circle><circle r="25" cx="1297.8" cy="496.96" fill="url(#SvgjsRadialGradient1005)"></circle><circle r="25" cx="1443.6" cy="513.94" fill="url(#SvgjsRadialGradient1005)"></circle><circle r="25" cx="1562.68" cy="505.03" fill="url(#SvgjsRadialGradient1005)"></circle><circle r="25" cx="1547.3" cy="646.13" fill="url(#SvgjsRadialGradient1005)"></circle><circle r="5" cx="-42.43" cy="646.39" fill="rgba(205, 212, 239, 0.715)"></circle><circle r="5" cx="96.32" cy="544.24" fill="rgba(205, 212, 239, 0.715)"></circle><circle r="5" cx="57.6" cy="660.28" fill="rgba(205, 212, 239, 0.715)"></circle><circle r="5" cx="194.79" cy="548.05" fill="rgba(205, 212, 239, 0.715)"></circle><circle r="5" cx="196.71" cy="642.43" fill="rgba(205, 212, 239, 0.715)"></circle><circle r="5" cx="380.45" cy="396.8" fill="rgba(205, 212, 239, 0.715)"></circle><circle r="5" cx="365.29" cy="516.86" fill="rgba(205, 212, 239, 0.715)"></circle><circle r="5" cx="345.88" cy="644.35" fill="rgba(205, 212, 239, 0.715)"></circle><circle r="5" cx="540.34" cy="556.03" fill="rgba(205, 212, 239, 0.715)"></circle><circle r="5" cx="557.12" cy="697.54" fill="rgba(205, 212, 239, 0.715)"></circle><circle r="5" cx="691.5" cy="360.34" fill="rgba(205, 212, 239, 0.715)"></circle><circle r="5" cx="707.78" cy="684.77" fill="rgba(205, 212, 239, 0.715)"></circle><circle r="5" cx="1003.51" cy="538.11" fill="rgba(205, 212, 239, 0.715)"></circle><circle r="5" cx="944.67" cy="648.94" fill="rgba(205, 212, 239, 0.715)"></circle><circle r="5" cx="1154.67" cy="52.6" fill="rgba(205, 212, 239, 0.715)"></circle><circle r="5" cx="1151.36" cy="212.93" fill="rgba(205, 212, 239, 0.715)"></circle><circle r="5" cx="1110.99" cy="338.82" fill="rgba(205, 212, 239, 0.715)"></circle><circle r="5" cx="1132.26" cy="548.57" fill="rgba(205, 212, 239, 0.715)"></circle><circle r="5" cx="1127.76" cy="689.92" fill="rgba(205, 212, 239, 0.715)"></circle><circle r="5" cx="1301.48" cy="-49.65" fill="rgba(205, 212, 239, 0.715)"></circle><circle r="5" cx="1237.87" cy="53.52" fill="rgba(205, 212, 239, 0.715)"></circle><circle r="5" cx="1263.94" cy="687.21" fill="rgba(205, 212, 239, 0.715)"></circle><circle r="5" cx="1420.34" cy="-43.24" fill="rgba(205, 212, 239, 0.715)"></circle><circle r="5" cx="1416.57" cy="58.32" fill="rgba(205, 212, 239, 0.715)"></circle><circle r="5" cx="1400.23" cy="215.8" fill="rgba(205, 212, 239, 0.715)"></circle><circle r="5" cx="1441.33" cy="364.06" fill="rgba(205, 212, 239, 0.715)"></circle><circle r="5" cx="1396.8" cy="643.39" fill="rgba(205, 212, 239, 0.715)"></circle><circle r="5" cx="1541.26" cy="-56.72" fill="rgba(205, 212, 239, 0.715)"></circle><circle r="5" cx="1573.19" cy="62.14" fill="rgba(205, 212, 239, 0.715)"></circle><circle r="5" cx="1540.64" cy="247.34" fill="rgba(205, 212, 239, 0.715)"></circle><circle r="5" cx="1566.88" cy="363.53" fill="rgba(205, 212, 239, 0.715)"></circle></g><defs><mask id="SvgjsMask1004"><rect width="1440" height="500" fill="#ffffff"></rect></mask><radialGradient id="SvgjsRadialGradient1005"><stop stop-color="#ffffff" offset="0.1"></stop><stop stop-color="rgba(23, 53, 179, 0.43)" offset="0.2"></stop><stop stop-color="rgba(23, 53, 179, 0)" offset="1"></stop></radialGradient></defs></svg>